<mxfile host="app.diagrams.net" modified="2024-05-29T15:28:29.587Z" agent="Mozilla/5.0 (Windows NT 10.0; Win64; x64; rv:125.0) Gecko/20100101 Firefox/125.0" etag="L-250aC8fmSinTft8Ghc" version="24.4.9" type="github">
  <diagram name="Page-1" id="1qymWNL25Zu8hnTniR9L">
    <mxGraphModel dx="1185" dy="653" grid="1" gridSize="10" guides="1" tooltips="1" connect="1" arrows="1" fold="1" page="1" pageScale="1" pageWidth="1100" pageHeight="850" math="0" shadow="0">
      <root>
        <mxCell id="0" />
        <mxCell id="1" parent="0" />
      </root>
    </mxGraphModel>
  </diagram>
</mxfile>
